<?xml version="1.0" encoding="UTF-8"?>
<svg xmlns="http://www.w3.org/2000/svg" xmlns:xlink="http://www.w3.org/1999/xlink" viewBox="0 0 384 384" width="384px" height="384px">
<g id="surface29380116">
<path style=" stroke:none;fill-rule:nonzero;fill:rgb(30.588236%,69.01961%,89.803922%);fill-opacity:1;" d="M 172.90625 32 C 164.632812 32 156.730469 35.269531 150.875 41.125 L 144 48 L 64 48 C 58.230469 47.917969 52.863281 50.949219 49.953125 55.933594 C 47.042969 60.917969 47.042969 67.082031 49.953125 72.066406 C 52.863281 77.050781 58.230469 80.082031 64 80 L 320 80 C 325.769531 80.082031 331.136719 77.050781 334.046875 72.066406 C 336.957031 67.082031 336.957031 60.917969 334.046875 55.933594 C 331.136719 50.949219 325.769531 47.917969 320 48 L 240 48 L 233.125 41.125 C 227.285156 35.269531 219.367188 32 211.09375 32 Z M 69.84375 112 L 94.28125 324.21875 C 96.394531 340.058594 110.03125 352 126 352 L 257.96875 352 C 273.9375 352 287.589844 340.078125 289.71875 324.09375 L 314.15625 112 Z M 69.84375 112 "/>
</g>
</svg>
