<?xml version="1.0" encoding="UTF-8"?>
<svg xmlns="http://www.w3.org/2000/svg" xmlns:xlink="http://www.w3.org/1999/xlink" viewBox="0 0 500 500" width="500px" height="500px">
<g id="surface29937515">
<path style=" stroke:none;fill-rule:nonzero;fill:rgb(30.588236%,69.01961%,89.803922%);fill-opacity:1;" d="M 465.742188 34.257812 C 456.25 24.765625 443.789062 20 431.328125 20 C 418.867188 20 406.40625 24.765625 396.914062 34.257812 C 396.914062 34.257812 396.210938 34.921875 395.3125 35.859375 C 395.234375 35.9375 395.117188 35.976562 395.039062 36.054688 L 43.007812 388.046875 C 41.796875 389.296875 40.898438 390.820312 40.429688 392.539062 L 20.351562 467.421875 C 19.414062 470.859375 20.390625 474.53125 22.929688 477.070312 C 24.84375 478.984375 27.382812 480 30 480 C 30.859375 480 31.71875 479.882812 32.578125 479.648438 L 107.460938 459.570312 C 109.179688 459.101562 110.703125 458.203125 111.953125 456.953125 L 463.945312 105 C 464.0625 104.882812 464.101562 104.726562 464.179688 104.609375 C 465.078125 103.710938 465.703125 103.085938 465.703125 103.085938 C 484.765625 84.0625 484.765625 53.242188 465.742188 34.257812 Z M 451.601562 48.398438 C 462.773438 59.570312 462.773438 77.773438 451.601562 88.945312 C 448.28125 92.226562 445.46875 95.078125 443.046875 97.5 L 402.5 56.953125 C 407.109375 52.34375 411.054688 48.398438 411.054688 48.398438 C 416.445312 42.96875 423.671875 40 431.328125 40 C 438.984375 40 446.171875 43.007812 451.601562 48.398438 Z M 56.054688 411.523438 L 88.476562 443.945312 L 44.140625 455.859375 Z M 56.054688 411.523438 "/>
</g>
</svg>
