<svg xmlns="http://www.w3.org/2000/svg" width="400" height="266" fill="none" viewBox="0 0 400 266">
  <g clip-path="url(#a)">
    <path fill="#F2F2F2" d="M202.637 74.652c-3.567-5.898-7.793-12.197-14.412-14.123-7.665-2.23-15.539 2.2-22.217 6.573a647.363 647.363 0 0 0-57.616 42.451l.02.229 42.994-2.965c10.354-.714 21.064-1.526 30.215-6.425 3.472-1.858 6.857-4.341 10.791-4.514 4.889-.215 9.151 3.199 12.501 6.766 19.814 21.099 25.548 53.366 47.778 71.903a705.604 705.604 0 0 0-50.054-99.895Z"/>
    <path fill="#E4E4E4" d="M324.433 253.615c-2.192-2.767-3.087-3.415-5.248-6.207a949.882 949.882 0 0 1-49.624-70.591 940.801 940.801 0 0 1-29.988-50.459 934.683 934.683 0 0 1-13.16-24.633 937.64 937.64 0 0 1-9.703-19.363 391.188 391.188 0 0 1-2.656-5.585c-2.059-4.391-4.08-8.804-6.25-13.135-2.473-4.937-5.483-10.113-10.023-13.43a13.674 13.674 0 0 0-7.124-2.74c-3.696-.24-7.107 1.287-10.313 2.954-23.456 12.231-45.416 27.566-65.278 45.015a339.873 339.873 0 0 0-53.035 58.871c-.468.669-1.577.03-1.104-.644a334.539 334.539 0 0 1 5.7-7.819 341.718 341.718 0 0 1 87.243-81.376 337.014 337.014 0 0 1 17.291-10.483c2.959-1.676 5.931-3.33 8.953-4.882 2.963-1.521 6.109-2.89 9.494-2.941 11.52-.18 17.484 12.866 21.581 21.644a768.446 768.446 0 0 0 3.909 8.262 933.83 933.83 0 0 0 15.527 30.985 933.474 933.474 0 0 0 10.155 18.844 946.677 946.677 0 0 0 34.31 57.152c16.047 24.714 31.966 46.546 50.246 69.657.504.64-.396 1.552-.903.904ZM113.928 89c-.67-.747-1.335-1.493-2.008-2.239-5.312-5.874-11.012-11.681-18.307-15.049a26.558 26.558 0 0 0-11.127-2.58c-3.981.014-7.874 1.058-11.553 2.52a66.448 66.448 0 0 0-5.116 2.324c-1.914.963-3.794 1.99-5.665 3.027a249.232 249.232 0 0 0-30.188 19.675 249.006 249.006 0 0 0-18.392 15.463c-.605.558-1.51-.346-.904-.905a246.266 246.266 0 0 1 8.752-7.737 250.125 250.125 0 0 1 32.707-23.354 248.835 248.835 0 0 1 10.66-6.029 92.28 92.28 0 0 1 3.299-1.683 52.602 52.602 0 0 1 7.844-3.194 27.904 27.904 0 0 1 11.848-1.163c3.85.56 7.558 1.843 10.93 3.781 7.163 4.003 12.718 10.193 18.123 16.234.546.614-.353 1.522-.903.908Z"/>
    <path fill="#E4E4E4" d="m260.677 149.877 17.163-6.277 8.521-3.117c2.775-1.015 5.544-2.17 8.413-2.897a13.267 13.267 0 0 1 7.614.097 17.562 17.562 0 0 1 5.939 3.681 48.22 48.22 0 0 1 4.871 5.203c1.856 2.229 3.683 4.482 5.519 6.728a3356.817 3356.817 0 0 1 69.584 88.055c.493.645 1.604.009 1.105-.646a3409.704 3409.704 0 0 0-22.199-28.756 3337.757 3337.757 0 0 0-22.563-28.584 3341.765 3341.765 0 0 0-28.615-35.36c-1.618-1.973-3.218-3.966-4.993-5.802-3.258-3.369-7.328-6.346-12.2-6.427-2.865-.048-5.637.861-8.299 1.824-2.869 1.038-5.731 2.095-8.597 3.143l-17.282 6.322-4.32 1.58c-.767.28-.436 1.517.34 1.233h-.001Z"/>
    <path fill="#F2F2F2" d="M91.355 79.104C82.633 74.622 71.465 75.5 63.45 81.1a398.02 398.02 0 0 1 45.282 10.568c-6.177-3.62-11.01-9.291-17.377-12.564Zm-27.991 1.98-1.679 1.365a24.838 24.838 0 0 1 1.765-1.35c-.029-.004-.057-.01-.086-.015Zm244.317 68.856c-1.69-2.057-3.516-4.21-6.043-5.045l-2.359.093a267.604 267.604 0 0 0 71.276 81.485l-62.874-76.533Zm-146.706-16.965a17.434 17.434 0 0 0 6.944 9.747c1.311.893 2.863 1.75 3.312 3.271.236.971.09 1.994-.407 2.86a11.592 11.592 0 0 1-1.795 2.345l-.064.238c-3.254-1.929-6.351-4.368-8.148-7.697-1.798-3.329-2.049-7.691.158-10.764m108.356 94.404a17.429 17.429 0 0 0 6.943 9.747c1.312.893 2.864 1.75 3.312 3.272.236.97.091 1.993-.406 2.86a11.554 11.554 0 0 1-1.796 2.344l-.063.238c-3.255-1.929-6.351-4.368-8.149-7.697-1.798-3.329-2.049-7.691.159-10.764m-216.246-6.51a17.434 17.434 0 0 0 6.943 9.747c1.312.892 2.864 1.749 3.312 3.271a3.9 3.9 0 0 1-.406 2.86 11.55 11.55 0 0 1-1.796 2.344l-.063.238c-3.255-1.928-6.351-4.368-8.149-7.697-1.798-3.328-2.049-7.691.159-10.763"/>
    <path fill="#4EB0E5" d="M301.93 47.435c13.099 0 23.717-10.619 23.717-23.718C325.647 10.62 315.029 0 301.93 0c-13.099 0-23.717 10.619-23.717 23.717 0 13.099 10.618 23.718 23.717 23.718Z"/>
    <path fill="#F0F0F0" d="M344.731 5.52c-11.495-1.553-24.618 4.66-27.597 15.87a10.038 10.038 0 0 0-9.913-6.49 10.046 10.046 0 0 0-9.197 7.47l1.316.942a173.127 173.127 0 0 0 74.714-.337c-7.996-8.403-17.829-15.901-29.323-17.455Zm-49.295 31.623c-11.495-1.553-24.617 4.66-27.597 15.87a10.038 10.038 0 0 0-9.913-6.49 10.041 10.041 0 0 0-9.197 7.47l1.316.942a173.128 173.128 0 0 0 74.714-.337c-7.996-8.403-17.829-15.901-29.323-17.455Z"/>
    <path fill="#CCC" d="M395.759 43.123a.46.46 0 0 1-.141-.022C272.657 4.215 164.284 9.3 95.022 20.413a601.677 601.677 0 0 0-28.09 5.19 559.142 559.142 0 0 0-7.253 1.572 476.156 476.156 0 0 0-8.619 2.002c-1.2.284-2.378.57-3.531.86a451.49 451.49 0 0 0-5.423 1.375 432.692 432.692 0 0 0-6.44 1.714c-2.41.658-4.807 1.336-7.126 2.012-1.255.362-2.466.72-3.627 1.073-.13.036-.244.07-.36.105l-.25.076c-.145.044-.287.088-.43.128l-.009.003-.377.118-1.321.402c-11.415 3.519-17.69 6.022-17.751 6.046a.464.464 0 0 1-.601-.614.464.464 0 0 1 .254-.25c.063-.024 6.369-2.54 17.825-6.072.433-.133.873-.266 1.325-.402l.35-.11a.532.532 0 0 1 .037-.011c.142-.04.283-.084.427-.127l.25-.076c.125-.038.247-.075.373-.11 1.152-.35 2.368-.709 3.626-1.072a433.48 433.48 0 0 1 7.131-2.013l.023-.007a437.726 437.726 0 0 1 6.438-1.714 462.215 462.215 0 0 1 8.97-2.239 472.11 472.11 0 0 1 8.633-2.005c2.465-.55 4.91-1.08 7.265-1.573a602.383 602.383 0 0 1 28.134-5.199C164.236 8.365 272.764 3.272 395.9 42.215a.466.466 0 0 1-.14.908Z"/>
    <path fill="#3F3D56" d="M122.302 195.245a3.124 3.124 0 0 0-.791-1.242 2.92 2.92 0 0 0-.428-.33c-1.213-.809-3.027-.991-4.18 0-.117.1-.224.211-.321.33-.344.423-.698.837-1.061 1.242a40.857 40.857 0 0 1-1.841 1.971c-.182.177-.363.359-.549.535-.107.107-.214.209-.321.312-.409.39-.828.767-1.251 1.139a26.4 26.4 0 0 1-.674.586c-.34.284-.679.567-1.023.842a1.26 1.26 0 0 0-.098.074c-.009.005-.014.014-.023.019-.005 0-.009 0-.014.009a.086.086 0 0 0-.033.023c-.102.07-.172.117-.223.159.019-.01.037-.024.056-.033l-.256.195a46.081 46.081 0 0 1-9.11 5.227c-.154.061-.312.126-.47.186a39.975 39.975 0 0 1-18.997 2.8c-.66-.051-1.32-.121-1.981-.209a42.33 42.33 0 0 1-2.274-.4 45.556 45.556 0 0 1-8.38-2.53 55.19 55.19 0 0 1-9.608-5.636 90.386 90.386 0 0 0-1.404-.982c.534-1.311 1.06-2.623 1.571-3.943a89.17 89.17 0 0 0 .744-1.916 418.426 418.426 0 0 0 5.4-14.942 422.823 422.823 0 0 0 4.897-15.309c.158-.521.311-1.042.46-1.563a363.275 363.275 0 0 0 2.316-8.152c.07-.265.144-.526.21-.791.213-.781.422-1.562.627-2.344.465-1.762-.586-3.869-2.437-4.292a3.552 3.552 0 0 0-4.288 2.437c-.2.753-.4 1.502-.604 2.255a405.151 405.151 0 0 1-3.097 10.887l-.475 1.563a411.415 411.415 0 0 1-9.44 27.558c-.34.898-.688 1.795-1.037 2.693-.2.525-.405 1.051-.61 1.572-.134.33-.264.66-.395.986a19.372 19.372 0 0 0-4.097-.986l-.223-.028a12.705 12.705 0 0 0-3.26.028 11.125 11.125 0 0 0-8.017 4.957c-2.219 3.493-2.19 8.487.92 11.454 3.205 3.055 8.055 3.032 11.827 1.121a13.18 13.18 0 0 0 4.892-4.586 23.42 23.42 0 0 0 1.274-2.162c.098.065.195.13.293.2.372.26.744.525 1.111.786a51.884 51.884 0 0 0 6.748 4.143 50.365 50.365 0 0 0 16.1 4.869c.126.014.247.033.372.047.619.079 1.242.14 1.865.191a48.27 48.27 0 0 0 27.852-6.381 48.047 48.047 0 0 0 3.013-1.897c.535-.363 1.056-.73 1.572-1.116a47.058 47.058 0 0 0 8.38-7.934 3.746 3.746 0 0 0 1.023-2.465 3.502 3.502 0 0 0-.232-1.227Zm-77.007 11.077c.097-.07.195-.144.288-.219-.028.07-.163.149-.288.219Zm1.493-1.502c-.107.121-.205.242-.312.363a10.867 10.867 0 0 1-1.21 1.158l-.002.001-.001.001v.002a1.59 1.59 0 0 0-.196.103 8.1 8.1 0 0 1-.614.334 7.87 7.87 0 0 1-1.26.349c-.33.024-.66.027-.99.009h-.01a6.578 6.578 0 0 1-.674-.186 3.963 3.963 0 0 1-.326-.186c-.042-.037-.079-.074-.102-.097a1.202 1.202 0 0 1-.126-.135v-.002l-.001-.001-.002-.001-.001-.001c-.051-.093-.107-.186-.158-.279a4.464 4.464 0 0 1-.102-.367 5.81 5.81 0 0 1 .004-.637c.062-.297.146-.59.251-.875a5.28 5.28 0 0 1 .32-.586l.108-.176c.005-.005.005-.005.005-.01.07-.079.139-.162.213-.237.126-.139.26-.26.396-.386.262-.171.534-.328.814-.469.444-.158.9-.281 1.362-.368a11.61 11.61 0 0 1 2.051.019 14.04 14.04 0 0 1 1.907.47 17.25 17.25 0 0 1-1.288 2.111c-.02.028-.038.056-.056.079Zm-5.172-1.53a.976.976 0 0 1-.144.181.656.656 0 0 1 .144-.181Z"/>
    <path fill="#3F3D56" d="m108.322 147.75-.125 4.38c-.089 3.242-.18 6.485-.275 9.729-.097 3.651-.199 7.3-.306 10.947a26502.643 26502.643 0 0 0-.586 20.867c-.014.525-.033 1.046-.047 1.572l-.209 7.547c-.079 2.73-.157 5.46-.233 8.19-.056 2.046-.113 4.094-.172 6.143l-1.255 44.547a3.555 3.555 0 0 1-3.488 3.487 3.516 3.516 0 0 1-3.488-3.487c.233-8.353.468-16.705.707-25.057.21-7.552.421-15.105.637-22.657l.21-7.469c.106-3.748.212-7.496.315-11.244.014-.526.033-1.047.047-1.572.009-.461.023-.916.037-1.377l.614-21.838c.084-2.865.164-5.731.242-8.599l.279-9.803c.042-1.437.079-2.869.121-4.306a3.554 3.554 0 0 1 3.488-3.488 3.518 3.518 0 0 1 3.487 3.488Zm191.333.967a415.419 415.419 0 0 1-13.096 40.897c-1.398 3.695-2.829 7.384-4.358 11.027l.351-.833a25.386 25.386 0 0 1-2.599 4.935c-.071.1-.144.198-.217.296.361-.462.43-.553.206-.274-.118.14-.235.28-.357.416a11 11 0 0 1-1.331 1.26l.437-.339c-.051.119-.406.277-.517.345a8.499 8.499 0 0 1-1.118.567l.833-.352a8.887 8.887 0 0 1-1.968.54l.927-.125a7.906 7.906 0 0 1-1.998.022l.927.124a6.535 6.535 0 0 1-1.584-.426l.834.351a5.618 5.618 0 0 1-.781-.416c-.126-.083-.514-.376-.007.011.527.403.068.035-.041-.072-.09-.09-.172-.186-.26-.277-.41-.421.463.724.184.232a8.559 8.559 0 0 1-.408-.761l.352.833a5.567 5.567 0 0 1-.339-1.233l.125.927a6.353 6.353 0 0 1-.002-1.583l-.124.927c.085-.587.24-1.162.462-1.712l-.351.833c.154-.369.338-.727.547-1.068.097-.177.211-.344.339-.499.023.008-.59.704-.265.352.086-.092.165-.188.251-.28.138-.146.285-.279.431-.417.485-.463-.68.449-.12.083.407-.267.834-.5 1.279-.697l-.833.352a9.436 9.436 0 0 1 2.323-.624l-.928.125a11.899 11.899 0 0 1 3.005.036l-.927-.125c1.261.191 2.494.538 3.67 1.032l-.833-.351c2.506 1.076 4.726 2.673 6.942 4.24a51.946 51.946 0 0 0 6.746 4.142 50.422 50.422 0 0 0 16.101 4.871 48.325 48.325 0 0 0 43.056-17.092 3.754 3.754 0 0 0 1.022-2.466 3.548 3.548 0 0 0-1.022-2.466c-1.279-1.175-3.697-1.506-4.932 0a44.519 44.519 0 0 1-6.841 6.719c-.183.144-.753.529.122-.092-.2.142-.393.298-.591.444a46.144 46.144 0 0 1-9.455 5.378l.833-.351a45.024 45.024 0 0 1-11.241 3.079l.928-.124a45.393 45.393 0 0 1-11.977-.018l.927.125a46.402 46.402 0 0 1-11.559-3.149l.833.352a53.994 53.994 0 0 1-10.109-5.856 40.306 40.306 0 0 0-5.168-3.252 19.886 19.886 0 0 0-6.714-2.041c-4.389-.517-8.862 1.193-11.275 4.985-2.221 3.49-2.193 8.484.917 11.452 3.203 3.057 8.054 3.031 11.829 1.119 3.636-1.841 5.819-5.667 7.355-9.274 3.456-8.117 6.515-16.422 9.366-24.77a414.65 414.65 0 0 0 8.513-28.159c.465-1.762-.587-3.869-2.436-4.291a3.555 3.555 0 0 0-4.291 2.436Z"/>
    <path fill="#3F3D56" d="m334.456 147.749-1.256 44.549-1.249 44.316-.706 25.058a3.521 3.521 0 0 0 3.488 3.488 3.56 3.56 0 0 0 3.488-3.488l1.255-44.548 1.249-44.316.706-25.059a3.51 3.51 0 0 0-1.03-2.457 3.51 3.51 0 0 0-2.457-1.03 3.554 3.554 0 0 0-3.488 3.487Z"/>
    <path fill="#000" d="M213.731 249.234h1.083V199.92h25.265v-1.08h-25.265v-20.809h19.511c-.286-.363-.58-.722-.883-1.077h-18.628v-13.743c-.358-.153-.719-.3-1.083-.439v14.182h-21.23v-17.609c-.364.017-.722.042-1.084.072v17.537H174.48v-13.138c-.363.161-.722.33-1.077.508v12.63h-14.238v1.077h14.238v20.809h-14.238v1.08h14.238v49.314h1.077V199.92a16.929 16.929 0 0 1 16.937 16.937v32.377h1.084V199.92h21.23v49.314ZM174.48 198.84v-20.809h16.937v20.809H174.48Zm18.021 0v-20.809h.424a20.823 20.823 0 0 1 14.713 6.096 20.815 20.815 0 0 1 6.093 14.713h-21.23Z" opacity=".2"/>
    <path fill="#3F3D56" d="M207.117 234.448a29.327 29.327 0 0 1-10.371 16.542c-.869.079-1.733.159-2.59.241-.712.065-1.414.135-2.111.2l-.126.014-.088-.762-.354-3.088a17.492 17.492 0 0 1-1.534-15.086c1.227-3.311 3.45-6.237 5.636-9.139 3.018-4.008 5.952-7.97 6.059-12.858a28.15 28.15 0 0 1 3.674 6.199 7.645 7.645 0 0 0-2.381 1.753c-.19.21-.381.503-.251.754.112.214.391.265.633.293l1.748.181c.465.051.93.098 1.395.149a29.775 29.775 0 0 1 1.14 5.664 28.487 28.487 0 0 1-.479 8.943Z"/>
    <path fill="#4EB0E5" d="M222.556 222.259c-2.744 1.995-4.348 4.864-5.594 8.027a7.734 7.734 0 0 0-3.335 2.13c-.19.209-.381.502-.251.753.112.214.391.265.633.293l1.748.181c-1.246 3.739-2.39 7.609-4.594 10.766a17.2 17.2 0 0 1-5.595 5.074c-.605.344-1.229.653-1.869.925a500.505 500.505 0 0 0-9.543.823c-.712.065-1.414.135-2.111.2a19.611 19.611 0 0 1 0-.767 29.442 29.442 0 0 1 7.091-18.537c.21-.241.424-.479.642-.716a28.762 28.762 0 0 1 7.818-5.906 29.134 29.134 0 0 1 14.96-3.246Z"/>
    <path fill="#4EB0E5" d="m194.96 248.846-.534 1.581-.27.804c-.712.066-1.414.135-2.111.2l-.126.014-2.307.238c-.2-.233-.4-.47-.595-.712a28.849 28.849 0 0 1 3.753-40.51c-.614 3.213.102 6.292 1.279 9.347a7.648 7.648 0 0 0-2.744 1.912c-.191.209-.381.502-.251.753.112.214.391.265.632.293l1.749.181c.465.051.93.098 1.395.149l.656.07c.032.07.06.135.093.205 1.325 2.874 2.753 5.761 3.557 8.756.202.752.361 1.514.475 2.284a17.49 17.49 0 0 1-4.651 14.435Z"/>
    <path fill="#3F3D56" d="M241.771 181.396c-4.003-7.809-10.206-14.38-17.501-19.208a53.127 53.127 0 0 0-24.444-8.548 45.407 45.407 0 0 0-3.441-.182c-1.358-.021-21.794 5.874-28.64 10.687a53.156 53.156 0 0 0-16.432 18.382 47.672 47.672 0 0 0-5.639 24.012 52.809 52.809 0 0 0 6.838 23.939 51.363 51.363 0 0 0 16.948 18.018c7.133 4.551 14.298 16.619 22.719 17.045 8.486.429 18.162-10.954 25.901-14.411a48.561 48.561 0 0 0 19.404-15.813 51.275 51.275 0 0 0 9.115-22.763c1.197-8.41.639-17.083-2.233-25.12a52.066 52.066 0 0 0-2.595-6.038c-.828-1.63-3.253-2.23-4.772-1.251a3.57 3.57 0 0 0-1.251 4.772c.486.957.938 1.93 1.355 2.919l-.351-.833a47.07 47.07 0 0 1 3.198 11.876l-.125-.927a50.783 50.783 0 0 1-.031 13.339l.125-.928a51.04 51.04 0 0 1-3.513 12.87l.351-.833a48.427 48.427 0 0 1-3.102 6.091 46.296 46.296 0 0 1-2.8 4.117c-.398.528.543-.69.132-.172l-.21.265a43.516 43.516 0 0 1-6.667 6.698c-.218.176-.434.359-.661.523.009-.006.734-.558.305-.238l-.405.304a45.414 45.414 0 0 1-2.778 1.902 48.069 48.069 0 0 1-6.862 3.587l.833-.351a50.803 50.803 0 0 1-12.834 3.512l.928-.125a50.33 50.33 0 0 1-13.296.024l.928.124a46.402 46.402 0 0 1-11.671-3.155l.833.352a43.62 43.62 0 0 1-6.239-3.251 43.948 43.948 0 0 1-2.875-1.976l-.398-.3c-.426-.321.306.237.312.241a8.914 8.914 0 0 1-.714-.57 46.013 46.013 0 0 1-1.331-1.126 47.608 47.608 0 0 1-5.984-6.334c-.156-.198-.44-.6.188.246-.082-.111-.168-.22-.252-.331a49.648 49.648 0 0 1-2.54-3.708 50.687 50.687 0 0 1-3.63-7.026l.351.833a49.55 49.55 0 0 1-3.413-12.48l.124.927a45.534 45.534 0 0 1-.022-11.922l-.125.927a44.037 44.037 0 0 1 3.067-11.142l-.352.833a47.352 47.352 0 0 1 5.876-10.123c.151-.199.565-.695-.142.18.07-.085.136-.174.205-.26a49.873 49.873 0 0 1 8.309-8.291l.262-.204c-.929.739-.259.201-.048.043a49.65 49.65 0 0 1 2.993-2.074 48.206 48.206 0 0 1 7.155-3.771l-.833.352c3.609-1.516 19.598-5.092 22.506-4.702l-.927-.124a49.372 49.372 0 0 1 12.425 3.433l-.833-.352a51.178 51.178 0 0 1 8.635 4.693 50.904 50.904 0 0 1 1.899 1.351l.345.259c.484.362-.665-.524-.159-.124a51.65 51.65 0 0 1 4.822 4.303 47.895 47.895 0 0 1 3.201 3.606c.169.211.746.977.039.039.173.229.348.457.518.688a45.533 45.533 0 0 1 3.903 6.296c.834 1.626 3.249 2.233 4.772 1.251a3.572 3.572 0 0 0 1.251-4.772Z"/>
    <path fill="#3F3D56" d="M201.131 238.315a1.752 1.752 0 0 1-1.021-.271 1.763 1.763 0 0 1-.253-2.776l.12-.478-.048-.115c-1.618-3.859-11.944 6.898-12.391 10.524a13.953 13.953 0 0 0 .245 4.803 55.982 55.982 0 0 1-5.093-23.253 54.209 54.209 0 0 1 1.106-10.917 56.647 56.647 0 0 1 11.231-24.004c3.197.179 5.999-.308 6.269-6.504.048-1.102.866-2.056 1.046-3.141-.305.04-.616.065-.921.085l-.29.015-.036.001a1.74 1.74 0 0 1-1.43-2.837l.395-.486c.201-.25.406-.496.606-.746a.919.919 0 0 0 .065-.075c.23-.285.46-.565.69-.85a5.037 5.037 0 0 0-1.651-1.596c-2.306-1.351-5.488-.415-7.154 1.671-1.671 2.086-1.986 5.013-1.406 7.619a20.188 20.188 0 0 0 2.792 6.224c-.125.16-.255.315-.38.475a56.986 56.986 0 0 0-5.95 9.426c.473-3.692-5.307-17.025-7.542-19.849-2.685-3.392-8.19-1.911-8.663 2.389l-.013.124c.332.188.657.387.975.597a2.387 2.387 0 0 1 1.003 2.498 2.38 2.38 0 0 1-1.965 1.841l-.048.007c-4.444 6.345 9.802 22.86 13.367 19.152a58.158 58.158 0 0 0-3.131 14.738 55.107 55.107 0 0 0 .04 8.91l-.015-.105c-.793-6.456-14.385-16.054-18.354-15.255-2.286.461-4.539.356-4.191 2.663l.017.11a16.028 16.028 0 0 1 2.77 1.462 2.38 2.38 0 0 1 1.004 2.498 2.38 2.38 0 0 1-1.965 1.841l-.049.007-.1.015c-2.022 6.96 12.979 18.193 22.098 14.619h.005a58.207 58.207 0 0 0 3.908 11.407h13.958c.05-.155.095-.316.14-.471a15.82 15.82 0 0 1-3.862-.23c1.035-1.271 2.071-2.551 3.106-3.822a.759.759 0 0 0 .065-.075c.526-.65 1.056-1.296 1.581-1.946l.001-.001a23.23 23.23 0 0 0-.681-5.918Zm-15.984-31.443.007-.01-.007.02v-.01Zm-3.092 27.871-.12-.27c.005-.195.005-.39 0-.59 0-.055-.01-.11-.01-.165.045.345.085.69.135 1.035l-.005-.01ZM44.295 209.27a5.115 5.115 0 1 0 0-10.23 5.115 5.115 0 0 0 0 10.23Zm61.386 55.806a5.115 5.115 0 1 0 0-10.23 5.115 5.115 0 0 0 0 10.23Zm232.988 0a5.115 5.115 0 1 0 0-10.23 5.115 5.115 0 0 0 0 10.23Zm12.556-65.107a5.115 5.115 0 1 0 0-10.23 5.115 5.115 0 0 0 0 10.23Zm-14.882-47.434a5.115 5.115 0 1 0 .001-10.23 5.115 5.115 0 0 0-.001 10.23Zm-213.455 42.319a5.093 5.093 0 0 1-10.16.481 5.094 5.094 0 0 1 10.062-1.486c.066.331.098.668.098 1.005Zm102.31-27.438a5.115 5.115 0 1 0 0-10.231 5.116 5.116 0 1 0 0 10.231Zm-50.69-5.115a5.09 5.09 0 0 1-8.424 3.838 5.09 5.09 0 0 1 2.588-8.887 5.092 5.092 0 0 1 5.836 5.049Zm-66.037-14.882a5.09 5.09 0 0 1-8.423 3.839 5.09 5.09 0 0 1 2.588-8.888 5.09 5.09 0 0 1 5.835 5.049Zm170.207 63.712a5.116 5.116 0 1 0-.002-10.232 5.116 5.116 0 0 0 .002 10.232Zm-80.453-46.505a7.441 7.441 0 1 0 0-14.882 7.441 7.441 0 0 0 0 14.882Z"/>
    <path fill="#CACACA" d="M399.446 265.467.554 265.61a.551.551 0 0 1-.392-.163.549.549 0 0 1-.12-.603.563.563 0 0 1 .3-.3.57.57 0 0 1 .212-.042l398.892-.143a.557.557 0 0 1 .552.554.555.555 0 0 1-.552.554Z"/>
  </g>
  <defs>
    <clipPath id="a">
      <path fill="#fff" d="M0 0h400v265.61H0z"/>
    </clipPath>
  </defs>
</svg>
