<svg xmlns="http://www.w3.org/2000/svg" width="36" height="37" fill="none" viewBox="0 0 36 37">
  <path fill="#00E676" d="m9.454 31.377.589.286c2.452 1.428 5.199 2.095 7.945 2.095 8.633 0 15.695-6.857 15.695-15.238 0-4-1.667-7.904-4.61-10.761-2.943-2.857-6.867-4.476-11.085-4.476-8.632 0-15.695 6.857-15.596 15.333 0 2.857.882 5.619 2.354 8l.392.57-1.57 5.62 5.886-1.429Z"/>
  <path fill="#fff" d="M30.801 6.105C27.466 2.772 22.856.962 18.147.962 8.142.962.098 8.866.197 18.485c0 3.048.882 6 2.353 8.666L0 36.2l9.515-2.381c2.649 1.428 5.591 2.095 8.534 2.095C27.956 35.913 36 28.01 36 18.39a17.03 17.03 0 0 0-5.199-12.285ZM18.147 32.96c-2.648 0-5.297-.667-7.553-2l-.588-.286-5.69 1.429 1.471-5.428-.392-.572C1.08 19.342 3.14 10.39 10.202 6.2c7.062-4.19 16.185-2.19 20.501 4.666 4.316 6.857 2.256 15.714-4.806 19.904-2.257 1.429-5.003 2.19-7.75 2.19Zm8.633-10.57-1.079-.476s-1.57-.667-2.55-1.143c-.098 0-.196-.095-.294-.095-.295 0-.49.095-.687.19 0 0-.098.095-1.471 1.62a.542.542 0 0 1-.49.285h-.1c-.097 0-.293-.095-.391-.19l-.49-.191c-1.08-.476-2.06-1.048-2.846-1.81-.196-.19-.49-.38-.686-.57-.687-.668-1.374-1.43-1.864-2.287l-.098-.19c-.098-.095-.098-.19-.196-.381 0-.19 0-.38.098-.476 0 0 .392-.476.686-.762.197-.19.295-.476.49-.667.197-.285.295-.666.197-.952-.098-.476-1.275-3.048-1.57-3.619-.196-.286-.392-.38-.686-.476h-1.079c-.196 0-.392.095-.588.095l-.099.095c-.196.096-.392.286-.588.381-.196.19-.294.381-.49.572-.687.857-1.08 1.904-1.08 2.952 0 .762.196 1.524.49 2.19l.099.286a15.891 15.891 0 0 0 3.63 4.857l.392.38c.294.287.588.477.784.763 2.06 1.714 4.415 2.952 7.063 3.619.294.095.687.095.981.19h.98c.491 0 1.08-.19 1.472-.38.295-.191.49-.191.687-.382l.196-.19c.196-.19.392-.286.589-.476.196-.19.392-.381.49-.572.196-.38.294-.857.392-1.333v-.667s-.098-.095-.294-.19Z"/>
</svg>
