<svg xmlns="http://www.w3.org/2000/svg" width="700" height="517" fill="none" viewBox="0 0 700 517">
  <g clip-path="url(#a)">
    <path fill="#6C63FF" d="M7.534 247.554c11.054 42.718 34.433 79.645 71.38 97.546 76.808 37.201 250.029 18.015 379.31-4.009 66.875-11.391 125.654-42.826 168.354-87.066L7.534 247.554ZM685.478 46.473h-70.934c-3.366 0-6.128-2.495-6.128-5.543s2.762-5.549 6.128-5.549h12.269c-3.373 0-6.128-2.494-6.128-5.549 0-3.054 2.755-5.542 6.128-5.542h-8.756c-3.373 0-6.135-2.495-6.135-5.55 0-3.054 2.762-5.542 6.135-5.542h37.023c-8.215-3.455-17.818-5.912-28.884-7.204-100.957-11.728-137-3.97-149.715 4.003a149.233 149.233 0 0 1-51.888 20.58c-62.286 11.626-178.77 25.613-284.347-4.455C87.772 11.15 48.77 36.418 25.396 78.66h672.402c-.878-12.275-3.506-23.615-8.33-33.535a6.47 6.47 0 0 1-3.99 1.349ZM1.52 158.388a256.154 256.154 0 0 0 2.75 74.53l622.785 20.611a264.217 264.217 0 0 0 43.272-59.702L1.521 158.388Zm246.32 53.167h-12.262c3.372 0 6.134 2.501 6.134 5.549 0 3.048-2.762 5.543-6.134 5.543h-70.935c-3.366 0-6.128-2.495-6.128-5.543s2.762-5.549 6.128-5.549h12.269c-3.372 0-6.128-2.494-6.128-5.542 0-3.048 2.756-5.549 6.128-5.549h-8.762c-3.373 0-6.135-2.495-6.135-5.543s2.762-5.549 6.135-5.549h70.934c3.373 0 6.128 2.495 6.128 5.549 0 3.055-2.755 5.543-6.128 5.543h8.756c3.373 0 6.128 2.494 6.128 5.549 0 3.054-2.755 5.542-6.128 5.542ZM697.824 79.041 17.894 93.996C9.622 113.232 4.136 134.983 1.61 157.523h684.301a241.265 241.265 0 0 0 9.876-40.492c2.043-13.242 2.857-26.052 2.037-37.99ZM139.66 128.072h-12.262c3.372 0 6.134 2.501 6.134 5.549 0 3.048-2.762 5.549-6.134 5.549H56.464c-3.367 0-6.128-2.501-6.128-5.549 0-3.048 2.761-5.549 6.128-5.549h12.268c-3.372 0-6.128-2.494-6.128-5.542 0-3.049 2.756-5.549 6.128-5.549H59.97c-3.373 0-6.135-2.495-6.135-5.543s2.762-5.549 6.135-5.549h70.934c3.373 0 6.128 2.494 6.128 5.549 0 3.054-2.755 5.543-6.128 5.543h8.756c3.373 0 6.128 2.5 6.128 5.549 0 3.048-2.755 5.542-6.128 5.542Zm207.203 368.97c157.09 0 284.436-11.715 284.436-26.167 0-14.451-127.346-26.167-284.436-26.167-157.09 0-284.437 11.716-284.437 26.167 0 14.452 127.347 26.167 284.437 26.167Z" opacity=".1"/>
    <path fill="url(#b)" d="M636.759 254.744a.984.984 0 0 1 0-.133v-.197a5.421 5.421 0 0 0-.808-2.043 16.102 16.102 0 0 0-5.892-5.575c-4.2-2.303-9.972-3.29-11.652-7.687-.516-1.362-.528-2.844-.783-4.27a12.906 12.906 0 0 0-8.521-9.691c-1.998-.668-4.155-.853-6.096-1.68-4.34-1.846-6.631-6.396-8.571-10.602-2.512-5.43-5.023-10.862-7.535-16.297-1.909.961-4.378.509-6.166-.693a12.794 12.794 0 0 1-3.99-4.932c-2.59-5.027-3.704-10.723-6.745-15.508-3.042-4.785-9.119-8.565-14.49-6.485a24.696 24.696 0 0 1-3.246 1.343c-4.6 1.076-9.691-4.181-13.63-1.629a4.448 4.448 0 0 0-1.546 1.693.674.674 0 0 1 0-.127 8.127 8.127 0 0 0-.84 3.321v.802c0 .916.057 1.846.07 2.775.014.78-.046 1.56-.179 2.329v-.064a7.785 7.785 0 0 1-.331 1.273c-1.024 2.749-3.862 4.55-5.192 7.133v-.127c-.15.281-.28.572-.388.872a6.484 6.484 0 0 0-.363 2.106c-.115 4.855 5.033 9.424 5.632 14.636.426 3.691 1.272 4.875 4.41 6.962l.687.458c-.274 0-.554.038-.866.045a2.098 2.098 0 0 0-.362.038 3.874 3.874 0 0 0-3.271.572c-2.406 1.91-8.095.44-10.621 0-2.526-.439-11.181.745-12.39 5.543-1.209 4.798-3.283 14.7-3.283 14.7s0 6.281-.77 7.452a.37.37 0 0 0 0 .254c0 1.763.063 12.358-1.642 15.088-.42.636-.388 2.043-.076 3.774-1.795 2.31-3.481 5.008-3.182 6.777.547 3.621 7.891 15.005 18.416 8.909 0 0 5.988-10.952-1.546-16.775l.324-1.272c2.278 2.8 3.965 4.81 3.965 4.81s.089.236.229.637h-.229a29.925 29.925 0 0 1 1.769 8.323 10.2 10.2 0 0 1-.56 3.061h.197a6.742 6.742 0 0 1-.197.637 5.56 5.56 0 0 1-1.979 2.679c-5.263 3.729-11.289 30.36-11.289 30.36s-11.938 43.049-14.325 45.499c-1.972 2.011 10.424 7.674 19.727 7a15.18 15.18 0 0 0 3.818-.725c.058.636.121 1.272.185 1.851.197 1.909.401 3.678.528 4.232.331 1.387.986 15.552.986 15.552s-1.342 9.202-1.018 15.604c0 .439.058.859.096 1.273l-1.158.178c-1.757 3.945 5.479 36.864 6.465 39.632a26.355 26.355 0 0 1 1.094 6.713s-.636 2.342-.108 3.621c.329.782.544 1.607.637 2.45 0 0-.433 2.125.222 3.513.656 1.387-.108 3.818-.108 3.818s-.216 9.59-2.189 14.808a8.53 8.53 0 0 0 1.368 8.451c.137.181.286.353.446.515 0 0 10.881.089 12.797 0h.248c.77-.108 2.743-8.737.986-12.893-1.756-4.155-.216-9.271-.216-9.271v-7.56s1.973-1.82 0-5.727-1.648-5.091-1.648-5.091 2.195-6.287-.108-8.311c-2.304-2.023.439-9.698.439-9.698l.776-25.581a9.99 9.99 0 0 0-1.241-.318c-.044-.42-.089-.853-.133-1.311-.452-4.633-.84-10.933.165-12.727 1.005-1.795 1.489-17.462 1.648-28.35l10.029.382c.21 5.091.433 9.736.573 10.328.331 1.387.992 15.552.992 15.552s-1.349 9.202-1.024 15.604c0 .439.057.859.095 1.273l-1.158.178c-1.756 3.945 5.479 36.864 6.466 39.632a26.532 26.532 0 0 1 1.1 6.713s-.636 2.342-.114 3.621c.329.782.543 1.607.636 2.45 0 0-.432 2.125.223 3.513.655 1.387-.108 3.818-.108 3.818s-.217 9.59-2.189 14.808a8.525 8.525 0 0 0 1.412 8.438c.138.181.286.353.446.515 0 0 10.882.089 12.797 0h.248c.77-.108 2.743-8.737.986-12.892-1.756-4.156-.216-9.272-.216-9.272v-7.547s1.973-1.82 0-5.727-1.648-5.091-1.648-5.091 2.195-6.287-.108-8.311c-2.304-2.023.439-9.698.439-9.698l.789-25.581a9.63 9.63 0 0 0-1.273-.318c-.044-.42-.089-.853-.133-1.311-.452-4.633-.84-10.933.165-12.727.808-1.47 1.273-10.939 1.483-20.185 0-.637 0-1.273.051-1.909a98.793 98.793 0 0 0 13.732-1.54s-5.364-18.97-3.723-22.056c.707-1.33-.311-8.413-1.705-16.043a11.154 11.154 0 0 0 6.86 2.482c2.399 4.614 9.698 15.228 13.809 16.863 4.823 1.909 1.202-15.018-1.095-17.468a20.582 20.582 0 0 1-2.723-4.371c.063-.077.133-.14.197-.21.064-.07.114-18.009-.986-17.684-1.101.324-2.412-2.667-2.412-2.667l-3.398-29.826-1.426-12.485c1.19.878 2.603 1.438 3.818 2.31 3.309 2.425 4.391 6.682 5.842 10.449 1.196 3.099 2.876 6.173 5.632 8.12 2.755 1.947 6.796 2.463 9.545.49 2.545-1.852 3.296-5.193 3.856-8.241 4.62 1.623 10.227-2.717 9.628-7.458-.146-1.171-.579-2.45.032-3.474 1.222-2.024 5.091-.847 6.364-2.845.214-.346.324-.745.318-1.152a.778.778 0 0 0 .025-.172Zm-61.796 16.406c-.07 1.139 1.496 10.289 2.768 17.531-1.043-4.512-3.137-9.329-7.26-12.631 0 0 0-.23-.051-.637h.051s-.172-1.82-.198-4.41c.008-2.296.178-4.588.509-6.86v-.057h-.082c0-.191.051-.388.082-.579a20.691 20.691 0 0 1 1.547-5.562c.341-.694.735-1.362 1.177-1.998.681 6.154 1.521 14.051 1.457 15.203Zm3.424 21.203c.56 3.124.961 5.32.961 5.32l3.379 23.201v.108c-1.82-9.793-4.143-20.115-4.143-20.115a40.063 40.063 0 0 0-.197-8.514Z"/>
    <path fill="#3F3D56" d="M536.973 206.56c-.636-5.88-7-10.952-5.091-16.545 1.037-3.048 4.283-4.913 5.377-7.942.726-1.998.401-4.194.408-6.319.006-2.125.502-4.499 2.271-5.676 3.818-2.546 8.731 2.692 13.186 1.623a23.403 23.403 0 0 0 3.137-1.337c5.199-2.068 11.079 1.699 14 6.459 2.92 4.76 4.015 10.436 6.522 15.438a12.662 12.662 0 0 0 3.856 4.906c1.731 1.197 4.099 1.648 5.969.694l7.287 16.227c1.909 4.181 4.098 8.712 8.272 10.551 1.871.821 3.958 1.005 5.893 1.673a12.735 12.735 0 0 1 8.272 9.641c.249 1.425.255 2.902.758 4.257 1.622 4.378 7.203 5.358 11.269 7.636a15.764 15.764 0 0 1 5.728 5.543c.636 1.101 1.183 2.545.502 3.627-1.228 1.986-4.963.815-6.147 2.832-.598 1.018-.178 2.291 0 3.462.579 4.715-4.849 9.036-9.316 7.42-.541 3.035-1.273 6.363-3.729 8.202-2.641 1.973-6.554 1.451-9.221-.483-2.666-1.935-4.282-4.996-5.441-8.082-1.406-3.755-2.456-7.993-5.657-10.404-1.158-.866-2.545-1.426-3.678-2.298-2.545-1.947-3.818-5.161-4.728-8.272-1.177-3.882-2.113-7.872-3.818-11.537-1.706-3.666-4.404-7.077-8.101-8.75-3.468-1.559-7.464-1.457-11.047-2.724-6.166-2.176-10.729-7.362-16.863-9.806a27.304 27.304 0 0 1-5.537-3.131c-3.086-2.03-3.926-3.207-4.333-6.885Z"/>
    <path fill="#000" d="M537.546 180.826a6.38 6.38 0 0 0 .343-.77c.719-1.998.401-4.194.408-6.319-.001-.709.065-1.416.197-2.113a8.919 8.919 0 0 0-.834 4.022c-.006 1.712.198 3.506-.114 5.18Zm78.449 96.108c-2.641 1.966-6.554 1.451-9.221-.49-2.666-1.941-4.289-4.989-5.415-8.088-1.406-3.754-2.45-7.993-5.657-10.404-1.152-.866-2.545-1.432-3.672-2.298-2.545-1.947-3.818-5.16-4.734-8.24-1.178-3.882-2.107-7.872-3.818-11.537-1.712-3.666-4.398-7.077-8.101-8.75-3.462-1.559-7.458-1.457-11.041-2.724-6.173-2.176-10.735-7.362-16.863-9.806a27.644 27.644 0 0 1-5.543-3.131c-3.016-2.081-3.818-3.258-4.263-6.93-.637-5.511-6.237-10.315-5.365-15.508-.142.281-.267.57-.375.866-1.909 5.6 4.454 10.671 5.09 16.545.414 3.672 1.273 4.849 4.264 6.93a27.693 27.693 0 0 0 5.543 3.131c6.128 2.443 10.69 7.636 16.863 9.806 3.583 1.273 7.579 1.164 11.041 2.723 3.703 1.674 6.363 5.091 8.101 8.75 1.737 3.659 2.666 7.637 3.818 11.537.935 3.08 2.163 6.294 4.734 8.241 1.152.866 2.546 1.432 3.672 2.297 3.182 2.412 4.251 6.65 5.657 10.405 1.158 3.086 2.781 6.141 5.447 8.075 2.666 1.935 6.58 2.456 9.221.49 1.686-1.273 2.545-3.214 3.112-5.294a7.816 7.816 0 0 1-2.495 3.404Zm13.077-19.084a2.683 2.683 0 0 0-.305 1.489c1.438-1.419 4.683-.585 5.816-2.412.263-.451.366-.978.293-1.495-1.477 1.4-4.722.566-5.804 2.418Zm-9.348 10.881c-.121.637-.242 1.318-.394 1.98 3.894 1.215 8.393-1.91 9.029-5.855-1.546 3.035-5.364 5.065-8.635 3.875Z" opacity=".1"/>
    <path fill="#FBBEBE" d="M545.195 209.621s2.119 4.276-4.137 4.365c-6.255.089 4.028 27.771 4.028 27.771l10.398 13.236 12.937-7 .745-19.307.954-11.664s-12.09-3.927-9.863-9.119c2.227-5.193-15.062 1.718-15.062 1.718Z"/>
    <path fill="#575A89" d="M582.746 322.484s7.636 7.515 16.545-2.456l-6.841-7.261h-8.654l-1.05 9.717Z"/>
    <path fill="#000" d="m583.573 312.767-1.05 9.717s7.636 7.515 16.545-2.456" opacity=".1"/>
    <path fill="#FBBEBE" d="M596.421 314.091s3.074 8.062 5.301 10.499c2.227 2.438 5.727 19.301 1.062 17.392-4.664-1.909-13.573-16.119-14.107-18.556-.535-2.437-.739-9.335-.739-9.335h8.483Z"/>
    <path fill="#575A89" d="m529.712 355.454 41.147 1.59-4.773-17.397-20.726-.42-15.648 16.227Z"/>
    <path fill="#000" d="m535.433 355.454 41.153 1.59-4.773-17.397-20.732-.42-15.648 16.227Z" opacity=".1"/>
    <path fill="#FBBEBE" d="M543.177 384.172c-.973 1.814-.598 8.088-.159 12.727.28 2.953.586 5.225.586 5.225s-15.381 4.772-17.71.636c-.592-1.05-.884-2.889-.986-5.046-.318-6.364.986-15.534.986-15.534s-.636-14.101-.954-15.482c-.128-.554-.325-2.31-.516-4.213-.28-2.825-.547-5.969-.547-5.969l20.999-11.136s0 2.087-.038 5.301c-.114 10.092-.452 31.264-1.661 33.491Z"/>
    <path fill="#000" d="M543.604 402.124s-15.381 4.772-17.71.636c-.592-1.05-.884-2.889-.986-5.046 3.181-.484 12.867-1.82 18.11-.815.28 2.953.586 5.225.586 5.225Z" opacity=".1"/>
    <path fill="#3F3D56" d="M544.132 482.304h-.242c-1.852.07-12.377 0-12.377 0a5.845 5.845 0 0 1-.433-.509 8.687 8.687 0 0 1-1.368-8.4c1.909-5.199 2.119-14.744 2.119-14.744s.745-2.437.108-3.818c-.636-1.381-.216-3.5-.216-3.5a9.087 9.087 0 0 0-.636-2.437c-.528-1.273.108-3.609.108-3.609a27.01 27.01 0 0 0-1.063-6.681c-.954-2.756-7.954-35.528-6.255-39.454 0 0 14.846-2.546 20.471-.637l-.744 25.455s-2.654 7.636-.427 9.653c2.228 2.017.109 8.273.109 8.273s-.319 1.164 1.59 5.09c1.91 3.927 0 5.728 0 5.728v7.528s-1.482 5.09.21 9.227c1.693 4.136-.21 12.701-.954 12.835Z"/>
    <path fill="#FBBEBE" d="M573.27 384.172c-.973 1.814-.598 8.088-.159 12.727.28 2.953.586 5.225.586 5.225s-15.381 4.772-17.71.636c-.592-1.05-.884-2.889-.986-5.046-.318-6.364.986-15.534.986-15.534s-.636-14.101-.954-15.482c-.172-.745-.471-7.846-.707-14.216a3019.26 3019.26 0 0 1-.356-10.347l21 3.245s0 9.234-.261 18.722c-.229 9.201-.656 18.632-1.439 20.07Z"/>
    <path fill="#000" d="M573.697 402.124s-15.381 4.772-17.71.636c-.592-1.05-.884-2.889-.986-5.046 3.182-.484 12.867-1.82 18.11-.815.28 2.953.586 5.225.586 5.225Z" opacity=".1"/>
    <path fill="#3F3D56" d="M574.225 482.304h-.242c-1.852.07-12.377 0-12.377 0a5.845 5.845 0 0 1-.433-.509 8.687 8.687 0 0 1-1.368-8.4c1.909-5.224 2.1-14.77 2.1-14.77s.745-2.437.108-3.818c-.636-1.381-.216-3.5-.216-3.5a9.097 9.097 0 0 0-.636-2.437c-.528-1.273.108-3.608.108-3.608a27.018 27.018 0 0 0-1.063-6.682c-.954-2.755-7.954-35.527-6.255-39.454 0 0 14.846-2.545 20.471-.636l-.744 25.454s-2.654 7.636-.427 9.654c2.228 2.017.109 8.272.109 8.272s-.319 1.165 1.59 5.091c1.91 3.926 0 5.727 0 5.727v7.528s-1.482 5.091.21 9.227c1.693 4.137-.19 12.727-.935 12.861Z"/>
    <path fill="#000" d="M553.467 214.622c8.259 0 14.954-6.695 14.954-14.954s-6.695-14.954-14.954-14.954-14.954 6.695-14.954 14.954 6.695 14.954 14.954 14.954Z" opacity=".1"/>
    <path fill="#FBBEBE" d="M553.467 213.986c8.259 0 14.954-6.695 14.954-14.954s-6.695-14.954-14.954-14.954-14.954 6.695-14.954 14.954 6.695 14.954 14.954 14.954Z"/>
    <path fill="#000" d="m523.877 356.516 20.999-11.136s0 2.087-.038 5.301a1597.297 1597.297 0 0 1-12.141 7.191 617.33 617.33 0 0 1-6.803 3.945c-.47.255-.962.468-1.47.636-.28-2.793-.547-5.937-.547-5.937Zm51.093-11.161s0 9.233-.261 18.721h-.077c-1.569.056-3.14.007-4.702-.146-2.743-.293-4.938-1.018-5.728-2.457-1.597-2.8-6.07-6.363-9.85-9.017-.198-5.434-.357-10.347-.357-10.347l20.975 3.246Z" opacity=".1"/>
    <path fill="#575A89" d="M571.062 264.481a60.584 60.584 0 0 0-.305 12.491c9.647 7.955 7.846 24.71 7.846 24.71s7.426 33.943 5.835 37.016c-1.59 3.074 3.602 21.954 3.602 21.954a92.495 92.495 0 0 1-13.408 1.54c-1.569.056-3.14.007-4.702-.146-2.743-.293-4.939-1.018-5.728-2.456-2.965-5.193-15.8-12.937-15.8-12.937s-8.133 4.874-15.705 9.31a626.76 626.76 0 0 1-6.803 3.945 12.616 12.616 0 0 1-5.313 1.457c-9.005.668-21-4.97-19.091-6.968 2.335-2.443 13.898-45.289 13.898-45.289s5.829-26.517 10.92-30.227a5.508 5.508 0 0 0 1.909-2.666c1.743-4.843-1.171-12.606-1.171-12.606s-16.437-20.255-15.699-21.426c.738-1.171.745-7.42.745-7.42s2.017-9.863 3.181-14.636c1.165-4.773 9.546-5.944 11.983-5.517 2.437.426 7.948 1.909 10.277 0 2.329-1.909 6.262.744 6.262.744l9.659 2.66 8.687-5.091s8.705.446 9.449 1.61c.745 1.165 12.199 3.398 12.199 3.398 5.829 3.92 5.619 22.591 5.619 22.591s-13.999 12.192-16.863 18.454a21.018 21.018 0 0 0-1.483 5.505Z"/>
    <path fill="#575A89" d="m586.239 237.938 3.182 2.546 3.29 29.59 3.284 29.699s1.272 2.971 2.335 2.653c1.063-.318.955 17.602.955 17.602s-12.18-7.49-16.546 2.456l-3.398-23.984s-4.352-24.5-4.244-26.409c.108-1.909-2.227-22.59-2.227-22.59l13.369-11.563Zm-72.544 1.381-2.335 2.864s.216 12.301-1.591 15.272c-1.807 2.972 4.989 20.364 7.534 19.301 2.546-1.063 8.273-28.21 8.273-28.528 0-.318-11.881-8.909-11.881-8.909Z"/>
    <path fill="#575A89" d="M513.485 256.819s-7.426 7.528-6.898 11.136c.528 3.608 7.636 14.942 17.818 8.852 0 0 9.443-17.761-10.92-19.988Z"/>
    <path fill="#000" d="M543.89 482.323c-1.852.07-12.377 0-12.377 0a5.845 5.845 0 0 1-.433-.509c2.692-.916 8.508-2.291 12.81.509Zm30.106 0c-1.852.07-12.377 0-12.377 0a5.676 5.676 0 0 1-.433-.509c2.679-.916 8.495-2.291 12.81.509Zm-40.548-186.534c-1.623 15.565-1.089 46.454-.751 60.174a626.76 626.76 0 0 1-6.803 3.945 12.616 12.616 0 0 1-5.313 1.457c-.675-4.149 8.667-46.765 12.867-65.576Zm1.985-8.832c-.045.222-.815 3.608-1.985 8.832.458-4.461 1.094-7.662 1.985-8.832Zm25.836-1.68s9.017 56.635-17.684 63.635c-.007-.026 18.473-2.832 17.684-63.635Z" opacity=".1"/>
    <path fill="#000" d="M574.632 362.192c-1.569.056-3.14.007-4.702-.146l-7.204-77.438c4.595 3.004 10.093 57.959 11.906 77.584Zm-32.301-171.955c.478-.038.959.012 1.419.147a6.194 6.194 0 0 1 1.795 1.349 6.399 6.399 0 0 0 6.07 1.177 8.004 8.004 0 0 1 2.285-.636c1.215 0 2.265.891 2.895 1.909.63 1.018.955 2.227 1.496 3.315s1.406 2.119 2.596 2.387a4.544 4.544 0 0 1 1.655.381c.32.261.566.601.712.987.993 2.144 1.782 4.677 3.901 5.727.78.361 1.629.546 2.488.541a5.21 5.21 0 0 0 2.546-.458 4.887 4.887 0 0 0 1.871-1.865c1.323-2.189 1.476-4.9 1.164-7.439a20.47 20.47 0 0 0-3.328-8.947 18.672 18.672 0 0 0-17.086-7.884 23.716 23.716 0 0 0-3.405.636c-4.047 1.082-8.018 3.105-10.474 6.497a22.004 22.004 0 0 1-1.954 2.406c1.114-.109 2.234-.204 3.354-.23Z" opacity=".1"/>
    <path fill="#3F3D56" d="M542.331 189.601c.478-.038.959.012 1.419.146a6.197 6.197 0 0 1 1.795 1.35 6.399 6.399 0 0 0 6.07 1.177 8.006 8.006 0 0 1 2.285-.637c1.215 0 2.265.891 2.895 1.909.63 1.019.955 2.228 1.496 3.316.541 1.088 1.406 2.119 2.596 2.386a4.545 4.545 0 0 1 1.655.382c.32.26.566.601.712.986.993 2.145 1.782 4.678 3.901 5.728a5.84 5.84 0 0 0 2.488.54 5.188 5.188 0 0 0 2.546-.458 4.877 4.877 0 0 0 1.871-1.864c1.323-2.189 1.476-4.9 1.164-7.439a20.47 20.47 0 0 0-3.328-8.947 18.682 18.682 0 0 0-17.086-7.885 23.718 23.718 0 0 0-3.405.637c-4.047 1.081-8.018 3.105-10.474 6.497a22.088 22.088 0 0 1-1.954 2.405c1.114-.108 2.234-.203 3.354-.229Z"/>
    <path fill="#000" d="M526.104 225.211s.745 5.944-1.801 7.427c-2.545 1.482 1.801-7.427 1.801-7.427Zm53.982 46.034s6.045-8.909 6.898-6.363c.852 2.545-6.898 6.363-6.898 6.363Zm.426 2.965s5.963-7.318 6.535-4.454c.573 2.864-6.535 4.454-6.535 4.454ZM563 265.499a9.683 9.683 0 0 1-5.995-1.973h-.522a9.42 9.42 0 0 1-6.548 2.463 9.278 9.278 0 0 1-6.789-2.724h-.694a9.998 9.998 0 0 1-12.905-.235l-2.488-.045s2.914 7.764 1.17 12.606l42.528.758a60.592 60.592 0 0 1 .305-12.492v-.057l-2.335-.045a9.79 9.79 0 0 1-5.727 1.744Z" opacity=".1"/>
    <path fill="#000" d="M563 266.772a9.683 9.683 0 0 1-5.995-1.973h-.522a9.414 9.414 0 0 1-6.548 2.462 9.277 9.277 0 0 1-6.789-2.723h-.694a9.998 9.998 0 0 1-12.905-.236l-2.488-.044s2.914 7.763 1.17 12.606l42.528.757a60.584 60.584 0 0 1 .305-12.491v-.058l-2.335-.044a9.79 9.79 0 0 1-5.727 1.744Z" opacity=".1"/>
    <path fill="#3F3D56" d="M563 266.135a9.677 9.677 0 0 1-5.995-1.973h-.522a9.415 9.415 0 0 1-6.548 2.463 9.295 9.295 0 0 1-6.789-2.723h-.694a9.998 9.998 0 0 1-12.905-.236l-2.488-.044s2.914 7.763 1.17 12.606l42.528.757a60.596 60.596 0 0 1 .305-12.492v-.057l-2.335-.044a9.79 9.79 0 0 1-5.727 1.743Z"/>
    <path fill="#000" d="M561.11 223.703s8.953.573 9.011 1.846c.057 1.272-9.011-1.846-9.011-1.846Zm-21.751-5.428s-8.953.573-9.01 1.846c-.058 1.272 9.01-1.846 9.01-1.846Zm34.217 26.021c-.089-.064-.178-.115-.267-.172 2.291 2.062 1.909 6.567-.904 10.283-2.813 3.716-7.083 5.263-9.679 3.596.083.07.153.146.242.216 2.545 1.947 7 .42 9.94-3.424 2.94-3.843 3.226-8.546.668-10.499Zm-49.184 9.634c-2.265-4.085-1.972-8.597.592-10.309-.095.045-.197.083-.293.134-2.812 1.565-3.181 6.255-.852 10.48 2.329 4.226 6.529 6.364 9.341 4.824a2.49 2.49 0 0 0 .268-.178c-2.807 1.272-6.79-.866-9.056-4.951Zm3.029-34.452-.821 1.273-2.093-1.114 1.101-1.693a4.607 4.607 0 0 1 1.813 1.534Z" opacity=".1"/>
    <path fill="#FBBEBE" d="M514.122 266.574s1.864-8.769-.637-11.556c-2.501-2.787-1.699-17.398 2.119-17.08 3.818.319 9.546 11.875 8.591 14.318-.955 2.444-4.563 14.955-4.563 14.955l-5.51-.637Z"/>
    <path fill="#000" d="M573.996 203.308a4.88 4.88 0 0 1-1.871 1.865 5.207 5.207 0 0 1-2.545.458 5.838 5.838 0 0 1-2.488-.541c-2.12-1.056-2.909-3.589-3.901-5.727a2.357 2.357 0 0 0-.649-1.006 4.563 4.563 0 0 0-1.636-.401c-1.19-.267-2.049-1.304-2.596-2.386-.547-1.082-.872-2.278-1.496-3.315-.623-1.038-1.68-1.948-2.895-1.909a7.814 7.814 0 0 0-2.284.668 6.421 6.421 0 0 1-6.071-1.184 6.198 6.198 0 0 0-1.795-1.349 3.932 3.932 0 0 0-1.419-.146c-.732 0-1.457.07-2.189.127-.362.475-.751.93-1.164 1.362 1.113-.096 2.233-.191 3.353-.217.478-.038.959.012 1.419.147a6.18 6.18 0 0 1 1.795 1.349 6.416 6.416 0 0 0 6.071 1.184 7.815 7.815 0 0 1 2.284-.669c1.215 0 2.265.891 2.895 1.909.63 1.019.955 2.228 1.496 3.316.541 1.088 1.406 2.119 2.596 2.386.566.031 1.12.167 1.636.401.32.26.566.601.712.986.993 2.145 1.782 4.678 3.901 5.728a5.84 5.84 0 0 0 2.488.54 5.188 5.188 0 0 0 2.546-.458 4.877 4.877 0 0 0 1.871-1.864 10.554 10.554 0 0 0 1.272-5.893 9.722 9.722 0 0 1-1.336 4.639Z" opacity=".1"/>
    <path fill="#575A89" d="M516.941 273.53c3.163 0 5.727-1.738 5.727-3.882s-2.564-3.882-5.727-3.882c-3.164 0-5.728 1.738-5.728 3.882s2.564 3.882 5.728 3.882Z"/>
    <path fill="#4EB0E5" d="M330.26 485.721c108.422 0 196.315-87.893 196.315-196.315 0-108.421-87.893-196.314-196.315-196.314-108.421 0-196.314 87.893-196.314 196.314 0 108.422 87.893 196.315 196.314 196.315Z"/>
    <path fill="#444053" d="M433.267 388.06c0 30.991-48.719 2.647-100.951 2.647-52.232 0-105.062 27.173-105.062-3.818 0-17.671 16.838-42.247 40.994-60.097 18.2-13.452 40.548-23.087 62.999-23.087 23.087 0 45.703 10.43 63.743 24.748 22.769 18.053 38.277 42.311 38.277 59.607Z"/>
    <path fill="#F6F8FB" d="M394.984 328.44c-27.764-4.18-77.979-9.278-126.736-1.66 18.2-13.453 40.548-23.087 62.999-23.087 23.08 0 45.696 10.429 63.737 24.747Z"/>
    <path fill="#000" d="M227.254 150.828s-59.136 37.806-58.653 96.942c.484 59.136 58.653-96.942 58.653-96.942Z" opacity=".05"/>
    <path fill="#4EB0E5" d="M526.499 44.055s-53.581-3.227-47.262 34.318c0 0-1.273 6.63 4.76 9.647 0 0 .095-2.78 5.491-1.839a24.82 24.82 0 0 0 5.823.28 12.088 12.088 0 0 0 7.114-2.94s15.063-6.217 20.924-30.837c0 0 4.333-5.371 4.161-6.746l-9.042 3.856s3.086 6.523.636 11.945c0 0-.293-11.703-2.03-11.454-.35.057-4.696 2.259-4.696 2.259s5.313 11.365 1.273 19.618c0 0 1.521-14-2.966-18.798l-6.363 3.717s6.211 11.734 1.998 21.311c0 0 1.082-14.687-3.335-20.408l-5.771 4.5s5.835 11.568 2.278 19.51c0 0-.465-17.099-3.526-18.39 0 0-5.046 4.454-5.816 6.28 0 0 3.996 8.394 1.521 12.823 0 0-1.521-11.391-2.768-11.455 0 0-5.027 7.547-5.555 12.727 0 0 .222-7.7 4.333-13.446 0 0-4.862.834-7.693 3.99 0 0 .782-5.339 8.909-5.803 0 0 4.155-5.727 5.269-6.071 0 0-8.114-.681-13.033 1.502 0 0 4.327-5.034 14.515-2.75l5.727-4.645s-10.678-1.463-15.208.153c0 0 5.211-4.454 16.742-1.21l6.204-3.71s-9.106-1.959-14.534-1.272c0 0 5.727-3.086 16.348.261l4.455-1.992s-6.676-1.31-8.629-1.514c-1.954-.204-2.056-.751-2.056-.751a23.13 23.13 0 0 1 12.555 1.457s9.406-3.532 9.247-4.123Zm-54.956-16.692s-24.181-1.463-21.356 15.502c0 0-.566 2.997 2.151 4.359 0 0 .038-1.273 2.482-.828.868.143 1.75.186 2.628.128a5.529 5.529 0 0 0 3.22-1.33s6.803-2.813 9.45-13.936c0 0 1.96-2.425 1.909-3.049l-4.086 1.744s1.4 2.946.3 5.396c0 0-.134-5.288-.917-5.16-.159 0-2.125 1.018-2.125 1.018s2.405 5.135.592 8.864c0 0 .687-6.325-1.337-8.495l-2.876 1.68s2.806 5.307.904 9.634c0 0 .483-6.637-1.509-9.22l-2.609 2.03s2.635 5.224 1.031 8.813c0 0-.21-7.725-1.597-8.311 0 0-2.278 2.01-2.628 2.838 0 0 1.807 3.818.687 5.797 0 0-.687-5.148-1.273-5.167 0 0-2.271 3.405-2.507 5.727a12.4 12.4 0 0 1 1.954-6.077 6.817 6.817 0 0 0-3.475 1.801s.35-2.412 4.035-2.622c0 0 1.877-2.583 2.38-2.742 0 0-3.666-.306-5.886.68 0 0 1.953-2.278 6.56-1.272l2.546-2.094s-4.824-.636-6.873.064c0 0 2.355-2.011 7.566-.541l2.8-1.68s-4.111-.885-6.567-.566c0 0 2.59-1.394 7.388.12l2.005-.903s-3.017-.592-3.895-.681c-.878-.09-.935-.337-.935-.337a10.428 10.428 0 0 1 5.663.636s4.27-1.553 4.2-1.82Z"/>
    <path fill="#6C63FF" d="M682.863 464.543c9.464 0 17.137-1.296 17.137-2.895s-7.673-2.895-17.137-2.895-17.137 1.296-17.137 2.895 7.673 2.895 17.137 2.895ZM29.762 512.709c9.465 0 17.137-1.296 17.137-2.896 0-1.599-7.672-2.895-17.137-2.895-9.464 0-17.137 1.296-17.137 2.895 0 1.6 7.673 2.896 17.137 2.896Zm99.481 3.633c9.465 0 17.137-1.296 17.137-2.895s-7.672-2.895-17.137-2.895c-9.464 0-17.137 1.296-17.137 2.895s7.673 2.895 17.137 2.895Z" opacity=".1"/>
    <path fill="#4EB0E5" d="M645.356 497.004c14.132 0 25.588-1.938 25.588-4.328 0-2.389-11.456-4.327-25.588-4.327-14.131 0-25.587 1.938-25.587 4.327 0 2.39 11.456 4.328 25.587 4.328Z"/>
    <path fill="#4EB0E5" d="M655.933 485.607a7.468 7.468 0 0 0 2.443-3.685c.312-1.457-.311-3.213-1.705-3.748-1.566-.598-3.239.49-4.506 1.585-1.266 1.094-2.723 2.341-4.384 2.112a6.657 6.657 0 0 0 2.062-6.242 2.63 2.63 0 0 0-.573-1.273c-.872-.929-2.444-.535-3.487.197-3.309 2.329-4.232 6.822-4.251 10.869-.331-1.457-.051-2.978-.057-4.454-.007-1.477-.42-3.182-1.68-3.965a5.096 5.096 0 0 0-2.546-.598c-1.489-.057-3.143.089-4.161 1.177-1.273 1.356-.936 3.621.165 5.091 1.101 1.47 2.768 2.425 4.302 3.449a9.553 9.553 0 0 1 3.08 2.934c.092.168.169.345.229.528h9.322a25.975 25.975 0 0 0 5.747-3.977ZM37.761 432.249s3.494 4.569-1.616 11.454c-5.11 6.885-9.323 12.727-7.636 17.029 0 0 7.706-12.816 14-13.001 6.293-.185 2.15-7.776-4.748-15.482Z"/>
    <path fill="#000" d="M37.761 432.249c.303.441.543.923.713 1.431 6.122 7.191 9.38 13.905 3.5 14.07-5.486.159-12.09 9.959-13.637 12.434.054.192.117.381.19.567 0 0 7.707-12.816 14-13.001 6.294-.185 2.132-7.795-4.766-15.501Z" opacity=".1"/>
    <path fill="#FFD037" d="M44.258 438.071c0 1.61-.184 2.915-.407 2.915-.223 0-.4-1.273-.4-2.915 0-1.642.222-.853.45-.853.23 0 .357-.757.357.853Z"/>
    <path fill="#FFD037" d="M46.46 439.993c-1.413.77-2.64 1.234-2.749 1.037-.108-.197.955-.973 2.367-1.743 1.413-.77.853-.21.961 0 .108.21.86-.064-.579.706Z"/>
    <path fill="#4EB0E5" d="M19.294 432.249s-3.493 4.569 1.61 11.454c5.104 6.885 9.323 12.727 7.636 17.029 0 0-7.712-12.816-14-13.001-6.286-.185-2.15-7.776 4.754-15.482Z"/>
    <path fill="#000" d="M19.294 430.249a5.478 5.478 0 0 0-.713 1.431c-6.121 7.191-9.386 13.905-3.5 14.07 5.48.159 12.091 9.959 13.631 12.434a5.924 5.924 0 0 1-.184.567s-7.713-12.816-14-13.001c-6.287-.185-2.138-7.795 4.766-15.501Z" opacity=".1"/>
    <path fill="#FFD037" d="M12.797 438.071c0 1.61.178 2.915.401 2.915.223 0 .4-1.273.4-2.915 0-1.642-.222-.853-.445-.853-.222 0-.356-.757-.356.853Z"/>
    <path fill="#FFD037" d="M10.563 439.993c1.413.77 2.648 1.234 2.756 1.037.108-.197-.955-.973-2.367-1.743-1.413-.77-.86-.21-.961 0-.102.21-.84-.064.572.706Z"/>
    <path fill="#A8A8A8" d="M13.91 460.153s9.775-.3 12.728-2.399c2.952-2.1 15.037-4.601 15.768-1.273.732 3.328 14.688 16.736 3.653 16.825-11.034.089-25.638-1.725-28.578-3.513-2.94-1.788-3.57-9.64-3.57-9.64Z"/>
    <path fill="#000" d="M46.244 472.167c-11.035.089-25.639-1.725-28.579-3.513-2.24-1.362-3.13-6.255-3.43-8.514h-.324s.636 7.884 3.557 9.672c2.92 1.789 17.544 3.602 28.578 3.513 3.182 0 4.283-1.164 4.226-2.838-.446 1.024-1.655 1.661-4.028 1.68Z" opacity=".2"/>
    <path fill="#444053" d="M260.465 263.666c3.736-.21 21.318-1.534 32.486-7.903a12.659 12.659 0 0 1 5.899-1.738c3.551-.101 7.636 1.381 5.021 9.679-4.238 13.574-28.846 28.846-44.118 28-14.687-.815-32.111-6.733-43.616-27.542a12.734 12.734 0 0 1-1.572-6.548c.134-4.2 1.661-9.462 9.546-3.595 10.652 7.923 30.863 9.424 34.916 9.647.479.026.959.026 1.438 0Zm141.27 0c3.736-.21 21.318-1.534 32.486-7.903a12.659 12.659 0 0 1 5.899-1.738c3.551-.101 7.636 1.381 5.021 9.679-4.238 13.574-28.846 28.846-44.118 28-14.687-.815-32.111-6.733-43.616-27.542a12.734 12.734 0 0 1-1.572-6.548c.134-4.2 1.661-9.462 9.546-3.595 10.652 7.923 30.863 9.424 34.916 9.647.479.026.959.026 1.438 0Z"/>
  </g>
  <defs>
    <linearGradient id="b" x1="567.715" x2="567.715" y1="482.349" y2="167.965" gradientUnits="userSpaceOnUse">
      <stop stop-color="gray" stop-opacity=".25"/>
      <stop offset=".54" stop-color="gray" stop-opacity=".12"/>
      <stop offset="1" stop-color="gray" stop-opacity=".1"/>
    </linearGradient>
    <clipPath id="a">
      <path fill="#fff" d="M0 0h700v516.342H0z"/>
    </clipPath>
  </defs>
</svg>
