<svg xmlns="http://www.w3.org/2000/svg" width="36" height="36" fill="none" viewBox="0 0 36 36">
  <path fill="#40B3E0" d="M18 .086C8.059.086 0 7.974 0 17.704c0 9.73 8.059 17.619 18 17.619s18-7.888 18-17.619C36 7.974 27.941.086 18 .086Z"/>
  <path fill="#fff" d="m26.759 10.22-3.216 15.867s-.45 1.1-1.686.572l-7.419-5.568-2.697-1.276-4.542-1.496s-.697-.242-.764-.77c-.068-.529.787-.815.787-.815l18.052-6.931s1.484-.638 1.484.418"/>
  <path fill="#D2E5F1" d="M13.868 25.908s-.216-.02-.486-.856-1.641-5.237-1.641-5.237l10.903-6.778s.63-.374.607 0c0 0 .113.066-.225.374-.337.309-8.565 7.548-8.565 7.548"/>
  <path fill="#B5CFE4" d="m17.283 23.226-2.935 2.619s-.229.17-.48.063l.562-4.864"/>
</svg>
